<?xml version="1.0" encoding="utf-8"?>
<!-- Generator: Adobe Illustrator 16.0.3, SVG Export Plug-In . SVG Version: 6.00 Build 0)  -->
<!DOCTYPE svg PUBLIC "-//W3C//DTD SVG 1.1//EN" "http://www.w3.org/Graphics/SVG/1.1/DTD/svg11.dtd">
<svg version="1.1" id="Layer_1" xmlns="http://www.w3.org/2000/svg" xmlns:xlink="http://www.w3.org/1999/xlink" x="0px" y="0px"
	 width="150px" height="114px" viewBox="0 0 150 114" enable-background="new 0 0 150 114" xml:space="preserve">
<g>
	<path fill="#fff" d="M146.822,0.397l-16.289,10.617c-4.816-6.666-12.65-11.013-21.484-11.013c-14.611,0-26.5,11.887-26.5,26.5
		c0,14.612,11.889,26.5,26.5,26.5c7.818,0,14.852-3.41,19.705-8.815l-2.547-1.661c-4.289,4.592-10.393,7.471-17.158,7.471
		c-12.955,0-23.494-10.54-23.494-23.495c0-12.956,10.539-23.496,23.494-23.496c11.842,0,21.66,8.809,23.262,20.216
		c1.188,0.081,2.182-0.002,3.006-0.171c-0.449-3.431-1.561-6.654-3.195-9.545l14.146-9.22v44.431l-33.943-22.123
		c2.676-1.006,7.232-1.987,12.131,0.194l0.041,0.018c3.604,1.476,6.609,1.999,9.063,1.999c3.213,0,5.469-0.897,6.873-1.726v-3.206
		c0-0.251-0.305-0.366-0.471-0.16c-0.039,0.044-4.154,4.47-14.307,0.32c-5.408-2.4-10.516-1.534-13.785-0.426
		c-2.254,0.764-3.393,1.471-3.826,1.82c-0.582,0.465-0.609,1.499-0.004,1.897l38.783,25.281c1.32,0.86,2.4,0.275,2.4-1.3V1.697
		C149.223,0.122,148.143-0.464,146.822,0.397"/>
	<polygon fill="#fff" points="114.971,74.879 108.957,74.879 101.359,82.979 101.359,61.838 96.209,61.838 96.209,97.174 
		101.359,97.174 101.359,86.893 110.266,97.174 116.445,97.174 105.818,84.844 	"/>
	<path fill="#fff" d="M146.648,70.559c1.852,0,3.352-1.502,3.352-3.352c0-1.854-1.5-3.355-3.352-3.355s-3.354,1.502-3.354,3.355
		C143.295,69.057,144.797,70.559,146.648,70.559"/>
	<rect x="144.072" y="74.879" fill="#fff" width="5.15" height="22.293"/>
	<path fill="#fff" d="M136.828,83.596c0-4.828-1.781-9.334-8.885-9.334c-3.506,0-6.375,0.955-8.014,1.959l1.094,3.641
		c1.502-0.957,3.777-1.641,5.963-1.641c3.918,0,4.51,2.414,4.51,3.871v0.602c-8.197-0.045-13.025,2.777-13.025,8.379
		c0,3.369,2.369,6.602,6.832,6.602c2.869,0,5.191-1.229,6.557-2.961h0.135l0.365,2.461h5.055c-0.229-1.367-0.586-3.324-0.586-5.33
		V83.596z M131.631,89.387c0,0.365-0.045,0.82-0.182,1.229c-0.5,1.596-2.139,3.051-4.371,3.051c-1.775,0-3.389-1.002-3.389-3.186
		c0-3.369,3.98-4.236,7.941-4.145V89.387z"/>
	<path fill="#fff" d="M61.241,74.834c-0.731,0.365-1.572,1.045-2.517,2.037v-1.992h-5.15v22.293h5.15V85.613
		c0-4.242,1.403-6.361,4.211-6.361c0.931,0,1.884,0.35,2.861,1.051l2.357-4.713c-1.479-0.887-2.898-1.328-4.257-1.328
		C62.874,74.262,61.989,74.451,61.241,74.834"/>
	<path fill="#fff" d="M28.962,61.232c-9.207,0-16.824,6.795-18.116,15.643c-1.108-0.137-2.229-0.156-3.321-0.031
		C4.808,77.113,2.334,77.977,0,79.516l1.514,2.334c1.853-0.912,4.148-1.525,6.269-1.607c2.175-0.113,4.218,0.324,6.275,1.189
		c2.418,1.018,5.001,1.643,7.744,1.635c2.733-0.055,5.539-0.682,7.804-3.01l-2.074-1.854c-1.321,1.035-3.622,1.592-5.683,1.457
		c-1.931-0.096-3.945-0.568-5.834-1.313c0.605-6.621,6.17-11.807,12.948-11.807c7.182,0,13.002,5.822,13.002,13.004
		s-5.821,13.002-13.002,13.002c-5.291,0-9.842-3.16-11.874-7.693c-1.03-0.262-2.055-0.557-3.03-0.969
		c-1.041-0.438-2.054-0.813-3.107-1.023c1.561,8.529,9.031,14.994,18.011,14.994c10.113,0,18.311-8.197,18.311-18.311
		C47.273,69.43,39.075,61.232,28.962,61.232"/>
	<path fill="#fff" d="M88.963,83.596c0-4.828-1.781-9.334-8.883-9.334c-3.506,0-6.375,0.955-8.015,1.959l1.094,3.641
		c1.501-0.957,3.779-1.641,5.964-1.641c3.916,0,4.508,2.414,4.508,3.871v0.602c-8.197-0.045-13.025,2.777-13.025,8.379
		c0,3.369,2.371,6.602,6.832,6.602c2.869,0,5.191-1.229,6.557-2.961h0.137l0.363,2.461h5.057c-0.229-1.367-0.588-3.324-0.588-5.33
		V83.596z M83.768,89.387c0,0.365-0.047,0.82-0.182,1.229c-0.502,1.596-2.141,3.051-4.371,3.051c-1.777,0-3.389-1.002-3.389-3.186
		c0-3.369,3.979-4.236,7.942-4.145V89.387z"/>
	<path fill="#fff" d="M30.758,111.965c0.409,0.25,1.005,0.459,1.633,0.459c0.932,0,1.477-0.49,1.477-1.203
		c0-0.66-0.377-1.037-1.33-1.402c-1.152-0.41-1.864-1.006-1.864-2c0-1.1,0.912-1.916,2.283-1.916c0.723,0,1.246,0.168,1.561,0.344
		l-0.251,0.744c-0.231-0.125-0.701-0.334-1.34-0.334c-0.963,0-1.33,0.576-1.33,1.057c0,0.66,0.429,0.984,1.403,1.361
		c1.193,0.461,1.801,1.037,1.801,2.072c0,1.09-0.807,2.031-2.471,2.031c-0.681,0-1.423-0.199-1.801-0.449L30.758,111.965z"/>
	<path fill="#fff" d="M42.601,109.473c0,2.428-1.477,3.717-3.277,3.717c-1.864,0-3.172-1.445-3.172-3.58
		c0-2.242,1.392-3.707,3.277-3.707C41.354,105.902,42.601,107.377,42.601,109.473 M37.125,109.588c0,1.508,0.816,2.857,2.251,2.857
		c1.445,0,2.262-1.33,2.262-2.932c0-1.402-0.732-2.867-2.251-2.867C37.878,106.646,37.125,108.037,37.125,109.588"/>
	<path fill="#fff" d="M44.308,113.074v-7.057h0.994l2.261,3.57c0.524,0.826,0.933,1.57,1.267,2.293l0.021-0.012
		c-0.084-0.941-0.105-1.801-0.105-2.898v-2.953h0.859v7.057h-0.922l-2.24-3.582c-0.493-0.785-0.964-1.59-1.319-2.354l-0.031,0.01
		c0.052,0.889,0.073,1.738,0.073,2.91v3.016H44.308z"/>
	<path fill="#fff" d="M57.092,112.76c-0.409,0.146-1.216,0.387-2.168,0.387c-1.068,0-1.948-0.271-2.638-0.93
		c-0.608-0.586-0.984-1.529-0.984-2.629c0.01-2.105,1.454-3.645,3.821-3.645c0.817,0,1.456,0.178,1.759,0.324l-0.22,0.744
		c-0.377-0.168-0.847-0.305-1.561-0.305c-1.716,0-2.836,1.068-2.836,2.84c0,1.789,1.079,2.846,2.722,2.846
		c0.597,0,1.005-0.082,1.214-0.188V110.1h-1.434v-0.732h2.325V112.76z"/>
	<path fill="#fff" d="M59.007,106.111c0.557-0.084,1.216-0.146,1.938-0.146c1.308,0,2.241,0.303,2.859,0.879
		c0.628,0.576,0.995,1.393,0.995,2.533c0,1.152-0.356,2.096-1.016,2.744c-0.66,0.66-1.749,1.016-3.12,1.016
		c-0.65,0-1.194-0.031-1.656-0.084V106.111z M59.919,112.352c0.23,0.041,0.565,0.053,0.921,0.053c1.948,0,3.006-1.09,3.006-2.994
		c0.01-1.666-0.933-2.723-2.859-2.723c-0.471,0-0.827,0.041-1.068,0.094V112.352z"/>
	<path fill="#fff" d="M72.536,109.473c0,2.428-1.477,3.717-3.277,3.717c-1.864,0-3.173-1.445-3.173-3.58
		c0-2.242,1.392-3.707,3.277-3.707C71.29,105.902,72.536,107.377,72.536,109.473 M67.06,109.588c0,1.508,0.816,2.857,2.251,2.857
		c1.445,0,2.262-1.33,2.262-2.932c0-1.402-0.733-2.867-2.251-2.867C67.813,106.646,67.06,108.037,67.06,109.588"/>
	<path fill="#fff" d="M76.986,106.102c0.439-0.074,1.016-0.137,1.748-0.137c0.9,0,1.561,0.209,1.979,0.586
		c0.389,0.334,0.619,0.848,0.619,1.477c0,0.639-0.189,1.141-0.545,1.508c-0.482,0.512-1.268,0.775-2.158,0.775
		c-0.271,0-0.521-0.012-0.732-0.063v2.826h-0.91V106.102z M77.896,109.504c0.199,0.053,0.451,0.072,0.754,0.072
		c1.1,0,1.771-0.533,1.771-1.508c0-0.932-0.66-1.381-1.666-1.381c-0.398,0-0.701,0.031-0.859,0.072V109.504z"/>
	<path fill="#fff" d="M83.342,110.854l-0.732,2.221h-0.943l2.398-7.057h1.1l2.408,7.057h-0.975l-0.754-2.221H83.342z
		 M85.656,110.143l-0.691-2.031c-0.156-0.461-0.262-0.881-0.367-1.287h-0.02c-0.105,0.418-0.221,0.848-0.357,1.275l-0.689,2.043
		H85.656z"/>
	<path fill="#fff" d="M89.133,106.111c0.459-0.094,1.119-0.146,1.748-0.146c0.973,0,1.602,0.178,2.041,0.576
		c0.357,0.313,0.557,0.795,0.557,1.34c0,0.932-0.588,1.549-1.33,1.801v0.031c0.543,0.189,0.869,0.691,1.035,1.424
		c0.23,0.984,0.398,1.664,0.545,1.938h-0.941c-0.117-0.199-0.273-0.805-0.473-1.686c-0.209-0.975-0.586-1.342-1.412-1.373h-0.859
		v3.059h-0.91V106.111z M90.043,109.326h0.934c0.973,0,1.59-0.535,1.59-1.34c0-0.912-0.658-1.309-1.623-1.32
		c-0.439,0-0.754,0.043-0.9,0.084V109.326z"/>
	<path fill="#fff" d="M95.289,106.018h0.91v3.402h0.033c0.188-0.271,0.375-0.523,0.555-0.754l2.156-2.648h1.131l-2.555,2.994
		l2.754,4.063h-1.078l-2.326-3.465l-0.67,0.773v2.691h-0.91V106.018z"/>
	<polygon fill="#fff" points="105.143,106.018 105.143,108.969 108.555,108.969 108.555,106.018 109.477,106.018 
		109.477,113.074 108.555,113.074 108.555,109.766 105.143,109.766 105.143,113.074 104.23,113.074 104.23,106.018 	"/>
	<path fill="#fff" d="M117.613,109.473c0,2.428-1.477,3.717-3.277,3.717c-1.865,0-3.174-1.445-3.174-3.58
		c0-2.242,1.393-3.707,3.277-3.707C116.367,105.902,117.613,107.377,117.613,109.473 M112.137,109.588
		c0,1.508,0.816,2.857,2.25,2.857c1.445,0,2.262-1.33,2.262-2.932c0-1.402-0.732-2.867-2.25-2.867
		C112.891,106.646,112.137,108.037,112.137,109.588"/>
	<polygon fill="#fff" points="120.398,106.791 118.252,106.791 118.252,106.018 123.477,106.018 123.477,106.791 
		121.318,106.791 121.318,113.074 120.398,113.074 	"/>
	<polygon fill="#fff" points="128.439,109.766 125.695,109.766 125.695,112.311 128.752,112.311 128.752,113.074 
		124.785,113.074 124.785,106.018 128.596,106.018 128.596,106.781 125.695,106.781 125.695,109.012 128.439,109.012 	"/>
	<polygon fill="#fff" points="130.461,106.018 131.371,106.018 131.371,112.311 134.387,112.311 134.387,113.074 
		130.461,113.074 	"/>
</g>
</svg>
