<?xml version="1.0" encoding="utf-8"?>
<!-- Generator: Adobe Illustrator 23.0.0, SVG Export Plug-In . SVG Version: 6.00 Build 0)  -->
<svg version="1.1" id="Layer_1" xmlns="http://www.w3.org/2000/svg" xmlns:xlink="http://www.w3.org/1999/xlink" x="0px" y="0px"
	 viewBox="0 0 79.4 79.4" style="enable-background:new 0 0 79.4 79.4;" xml:space="preserve">
<style type="text/css">
	.st0{opacity:0.5;fill:url(#SVGID_1_);enable-background:new    ;}
	.st1{opacity:0.5;fill:url(#SVGID_2_);enable-background:new    ;}
	.st2{fill:#FFFFFF;}
	.st3{fill:url(#SVGID_3_);}
	.st4{fill:url(#SVGID_4_);}
	.st5{fill:url(#SVGID_5_);}
</style>
<g>
	
		<linearGradient id="SVGID_1_" gradientUnits="userSpaceOnUse" x1="-1937.7292" y1="-1847.3352" x2="-1856.158" y2="-1847.3352" gradientTransform="matrix(-0.866 -0.5 0.5 -0.866 -679.3269 -2510.5757)">
		<stop  offset="0" style="stop-color:#796AFF"/>
		<stop  offset="1" style="stop-color:#FDA085"/>
	</linearGradient>
	<path class="st0" d="M19.5,70.5c3.1,2.9,8.3,5.3,12.4,6.4c4.7,1.2,9.6,1,14.3,0.1c9.9-1.9,22.3-3.3,26.8-16.1
		c4.3-10,5.8-21.1,5.3-32c-0.3-5.7-1.6-11.7-5.6-16c-3.3-3.6-8.4-6.4-13-8C30.8-5.2,8.8,13.5,3.6,19.3
		C-9.6,34.3,16.5,67.6,19.5,70.5z"/>
</g>
<g>
	
		<linearGradient id="SVGID_2_" gradientUnits="userSpaceOnUse" x1="133.2335" y1="1531.8241" x2="211.7783" y2="1531.8241" gradientTransform="matrix(1 0 0 1 -132.3921 -1492.8457)">
		<stop  offset="0" style="stop-color:#F66ABA"/>
		<stop  offset="1" style="stop-color:#FDA085"/>
	</linearGradient>
	<path class="st1" d="M47.6,2.2c-4.1-1-17.3-2-21.3-0.9c-4.6,1.2-8.6,3.9-12.2,7C6.6,14.9-0.3,24.3,1,35c1.3,10.9,4,22.5,9.9,31.9
		c3.1,4.9,5.3,7.6,10.8,9.4c4.6,1.5,19,0.7,23.8-0.2C75.1,70.5,77.7,45.7,79.1,38C82.9,18.2,47.6,2.2,47.6,2.2z"/>
</g>
<g>
	<rect x="31" y="27.6" class="st2" width="3.8" height="14.5"/>
	<path class="st2" d="M52,56.7h6.3h3.8v-3.2v-8.1v-3.2h-3.8H52h-3.8v3.2v8.1v3.2H52z M52,45.4h6.3v8.1H52V45.4z"/>
	<polygon class="st2" points="34.8,56.7 34.8,47.6 41.1,56.7 44.9,56.7 44.9,42.2 41.1,42.2 41.1,51.3 34.8,42.2 31,42.2 31,56.7 	
		"/>
	<polygon class="st2" points="17.3,42.2 17.3,33 23.6,42.2 27.4,42.2 27.4,27.6 23.6,27.6 23.6,36.7 17.3,27.6 13.5,27.6 13.5,42.2 
			"/>
</g>
<g>
	<g>
		<path class="st2" d="M58.3,20.4c-1-1-4.5-1-6.7,1.2l5.5,5.5C59.3,25,59.3,21.4,58.3,20.4z"/>
	</g>
	<polygon class="st2" points="48,35.3 43.4,30.7 46.5,28.8 51.1,22.1 56.6,27.6 50,32.3 	"/>
	<path class="st2" d="M48.6,24.4L46,28.1l-3.6,0.8C42.3,28.9,43.8,25,48.6,24.4z"/>
	<path class="st2" d="M54.3,30.1l-3.7,2.7l-0.8,3.7C49.9,36.5,53.8,35,54.3,30.1z"/>
	
		<linearGradient id="SVGID_3_" gradientUnits="userSpaceOnUse" x1="42.9331" y1="50.3133" x2="38.8327" y2="43.2114" gradientTransform="matrix(1 0 0 -1 0 82)">
		<stop  offset="0" style="stop-color:#E5E5E5"/>
		<stop  offset="1" style="stop-color:#FDA085;stop-opacity:0.1"/>
	</linearGradient>
	<path class="st3" d="M41.3,35.6c-1.7,1.7-3.2,2.8-3.4,2.6s1-1.7,2.6-3.4c1.7-1.7,3.2-2.8,3.4-2.6S42.9,34,41.3,35.6z"/>
	
		<linearGradient id="SVGID_4_" gradientUnits="userSpaceOnUse" x1="45.329" y1="47.9062" x2="41.2285" y2="40.8042" gradientTransform="matrix(1 0 0 -1 0 82)">
		<stop  offset="0" style="stop-color:#E5E5E5"/>
		<stop  offset="1" style="stop-color:#FDA085;stop-opacity:0.1"/>
	</linearGradient>
	<path class="st4" d="M43.7,38c-1.7,1.7-3.2,2.8-3.4,2.6s1-1.7,2.6-3.4c1.7-1.7,3.2-2.8,3.4-2.6S45.3,36.4,43.7,38z"/>
	
		<linearGradient id="SVGID_5_" gradientUnits="userSpaceOnUse" x1="43.2961" y1="48.8344" x2="37.7253" y2="39.1858" gradientTransform="matrix(1 0 0 -1 0 82)">
		<stop  offset="0" style="stop-color:#E5E5E5"/>
		<stop  offset="1" style="stop-color:#FDA085;stop-opacity:0.1"/>
	</linearGradient>
	<path class="st5" d="M41,38.5c-2.3,2.3-4.3,3.9-4.6,3.6c-0.3-0.3,1.3-2.3,3.6-4.6s4.3-3.9,4.6-3.6C44.9,34.2,43.3,36.3,41,38.5z"/>
</g>
</svg>
