<?xml version="1.0" encoding="utf-8"?>
<!-- Generator: Adobe Illustrator 23.0.0, SVG Export Plug-In . SVG Version: 6.00 Build 0)  -->
<svg version="1.1" id="Layer_1" xmlns="http://www.w3.org/2000/svg" xmlns:xlink="http://www.w3.org/1999/xlink" x="0px" y="0px"
	 viewBox="0 0 79.4 79.4" style="enable-background:new 0 0 79.4 79.4;" xml:space="preserve">
<style type="text/css">
	.st0{opacity:0.5;fill:url(#SVGID_1_);enable-background:new    ;}
	.st1{opacity:0.5;fill:url(#SVGID_2_);enable-background:new    ;}
	.st2{opacity:0.5;fill:url(#SVGID_3_);enable-background:new    ;}
	.st3{fill:#FFFFFF;}
	.st4{opacity:0.5;fill:url(#SVGID_4_);enable-background:new    ;}
	.st5{opacity:0.5;fill:url(#SVGID_5_);enable-background:new    ;}
	.st6{fill:url(#SVGID_6_);}
	.st7{fill:url(#SVGID_7_);}
	.st8{fill:url(#SVGID_8_);}
</style>
<g>
	
		<linearGradient id="SVGID_1_" gradientUnits="userSpaceOnUse" x1="-1894.2344" y1="2397.1782" x2="-1815.6873" y2="2397.1782" gradientTransform="matrix(-1 0 0 1 -1574.3545 -2357.5693)">
		<stop  offset="0" style="stop-color:#F6D365"/>
		<stop  offset="1" style="stop-color:#FDA085"/>
	</linearGradient>
	<path class="st0" d="M280.7,78.7c4.1,1,9.7,0.5,13.7-0.6c4.6-1.2,8.6-3.9,12.2-7c7.5-6.6,14.4-15.9,13.1-26.6
		c-1.3-10.9-4-22.5-9.9-31.9c-3.1-4.9-7.2-9.5-12.8-11.3c-4.6-1.5-10.3-1.4-15-0.5c-29.6,5.5-39,33.1-40.5,40.8
		C237.8,61.2,280.7,78.7,280.7,78.7z"/>
</g>
<g>
	
		<linearGradient id="SVGID_2_" gradientUnits="userSpaceOnUse" x1="-92.142" y1="2664.6985" x2="-12.462" y2="2664.6985" gradientTransform="matrix(-0.5 0.866 0.866 0.5 -2055.9294 -1247.0214)">
		<stop  offset="0" style="stop-color:#F6D365"/>
		<stop  offset="1" style="stop-color:#FDA085"/>
	</linearGradient>
	<path class="st1" d="M311.2,59.5c2.9-3.1,5.3-8.3,6.4-12.4c1.2-4.7,1-9.6,0.1-14.3c-1.9-9.9-6.4-20.7-16.1-24.9
		c-10-4.3-21.2-7.7-32.1-7.2c-5.7,0.3-11.7,1.6-16,5.6c-3.6,3.3-6.4,8.4-8,13c-10.1,28.9,8.6,51,14.4,56.1
		C274.9,88.6,308.2,62.5,311.2,59.5z"/>
</g>
<g>
	
		<linearGradient id="SVGID_3_" gradientUnits="userSpaceOnUse" x1="374.5468" y1="-452.6078" x2="453.0941" y2="-452.6078" gradientTransform="matrix(1 0 0 -1 -132.3921 -412.8457)">
		<stop  offset="0" style="stop-color:#F6D365"/>
		<stop  offset="1" style="stop-color:#FDA085"/>
	</linearGradient>
	<path class="st2" d="M281.4,0.7c-4.1-1-9.7-0.5-13.7,0.6c-4.6,1.2-8.6,3.9-12.2,7c-7.5,6.6-14.4,15.9-13.1,26.6
		c1.3,10.9,4,22.5,9.9,31.9c3.1,4.9,7.2,9.5,12.8,11.3c4.6,1.5,10.3,1.4,15,0.5c29.6-5.5,39-33.1,40.5-40.8
		C324.2,18.2,281.4,0.7,281.4,0.7z"/>
</g>
<g>
	<rect x="272.4" y="27.6" class="st3" width="3.8" height="14.5"/>
	<path class="st3" d="M293.4,56.7h6.3h3.8v-3.2v-8.1v-3.2h-3.8h-6.3h-3.8v3.2v8.1v3.2H293.4z M293.4,45.4h6.3v8.1h-6.3V45.4z"/>
	<polygon class="st3" points="276.1,56.7 276.1,47.6 282.5,56.7 286.2,56.7 286.2,42.2 282.5,42.2 282.5,51.3 276.1,42.2 
		272.4,42.2 272.4,56.7 	"/>
	<polygon class="st3" points="258.6,42.2 258.6,33 264.9,42.2 268.7,42.2 268.7,27.6 264.9,27.6 264.9,36.7 258.6,27.6 254.8,27.6 
		254.8,42.2 	"/>
</g>
<g>
	<g>
		<path class="st3" d="M299.6,20.4c0,0-4.5-1-6.7,1.2l5.5,5.5C300.7,25,299.6,20.4,299.6,20.4z"/>
	</g>
	<polygon class="st3" points="289.3,35.3 284.8,30.7 287.8,28.8 292.4,22.1 298,27.6 291.3,32.3 	"/>
	<path class="st3" d="M289.9,24.4l-2.7,3.7l-3.6,0.8C283.7,28.9,285.2,25,289.9,24.4z"/>
	<path class="st3" d="M295.7,30.1l-3.7,2.7l-0.8,3.7C291.2,36.5,295.2,35,295.7,30.1z"/>
	<ellipse transform="matrix(0.7071 -0.7071 0.7071 0.7071 59.5709 210.6432)" class="st3" cx="284.1" cy="33.4" rx="1.7" ry="0.5"/>
	<ellipse transform="matrix(0.7071 -0.7071 0.7071 0.7071 58.5675 213.0655)" class="st3" cx="286.5" cy="35.8" rx="1.7" ry="0.5"/>
	<ellipse transform="matrix(0.7071 -0.7071 0.7071 0.7071 58.4608 211.6024)" class="st3" cx="284.7" cy="35.2" rx="2.2" ry="0.7"/>
</g>
<g>
	
		<linearGradient id="SVGID_4_" gradientUnits="userSpaceOnUse" x1="26.6551" y1="2455.696" x2="108.2092" y2="2455.696" gradientTransform="matrix(-0.866 -0.5 -0.5 0.866 1326.0271 -2055.2217)">
		<stop  offset="0" style="stop-color:#796AFF"/>
		<stop  offset="1" style="stop-color:#FDA085"/>
	</linearGradient>
	<path class="st4" d="M19.5,70.5c3.1,2.9,8.3,5.3,12.4,6.4c4.7,1.2,9.6,1,14.3,0.1c9.9-1.9,22.3-3.3,26.8-16.1
		c4.3-10,5.8-21.1,5.3-32c-0.3-5.7-1.6-11.7-5.6-16c-3.3-3.6-8.4-6.4-13-8C30.8-5.2,8.8,13.5,3.6,19.3
		C-9.6,34.3,16.5,67.6,19.5,70.5z"/>
</g>
<g>
	
		<linearGradient id="SVGID_5_" gradientUnits="userSpaceOnUse" x1="133.2149" y1="-451.8129" x2="211.809" y2="-451.8129" gradientTransform="matrix(1 0 0 -1 -132.3921 -412.8457)">
		<stop  offset="0" style="stop-color:#F66ABA"/>
		<stop  offset="1" style="stop-color:#FDA085"/>
	</linearGradient>
	<path class="st5" d="M47.6,2.2c-4.1-1-17.3-2-21.3-0.9c-4.6,1.2-8.6,3.9-12.2,7C6.6,14.9-0.3,24.3,1,35c1.3,10.9,4,22.5,9.9,31.9
		c3.1,4.9,5.3,7.6,10.8,9.4c4.6,1.5,19,0.7,23.8-0.2C75.1,70.5,77.7,45.7,79.1,38C82.9,18.2,47.6,2.2,47.6,2.2z"/>
</g>
<g>
	<rect x="31" y="27.6" class="st3" width="3.8" height="14.5"/>
	<path class="st3" d="M52,56.7h6.3h3.8v-3.2v-8.1v-3.2h-3.8H52h-3.8v3.2v8.1v3.2H52z M52,45.4h6.3v8.1H52V45.4z"/>
	<polygon class="st3" points="34.8,56.7 34.8,47.6 41.1,56.7 44.9,56.7 44.9,42.2 41.1,42.2 41.1,51.3 34.8,42.2 31,42.2 31,56.7 	
		"/>
	<polygon class="st3" points="17.3,42.2 17.3,33 23.6,42.2 27.4,42.2 27.4,27.6 23.6,27.6 23.6,36.7 17.3,27.6 13.5,27.6 13.5,42.2 
			"/>
</g>
<g>
	<g>
		<path class="st3" d="M58.3,20.4c-1-1-4.5-1-6.7,1.2l5.5,5.5C59.3,25,59.3,21.4,58.3,20.4z"/>
	</g>
	<polygon class="st3" points="48,35.3 43.4,30.7 46.5,28.8 51.1,22.1 56.6,27.6 50,32.3 	"/>
	<path class="st3" d="M48.6,24.4L46,28.1l-3.6,0.8C42.3,28.9,43.8,25,48.6,24.4z"/>
	<path class="st3" d="M54.3,30.1l-3.7,2.7l-0.8,3.7C49.9,36.5,53.8,35,54.3,30.1z"/>
	<linearGradient id="SVGID_6_" gradientUnits="userSpaceOnUse" x1="42.9434" y1="31.6926" x2="38.8459" y2="38.7895">
		<stop  offset="0" style="stop-color:#E5E5E5"/>
		<stop  offset="1" style="stop-color:#FDA085;stop-opacity:0.1"/>
	</linearGradient>
	<path class="st6" d="M41.3,35.6c-1.7,1.7-3.2,2.8-3.4,2.6c-0.2-0.2,1-1.7,2.6-3.4c1.7-1.7,3.2-2.8,3.4-2.6S42.9,34,41.3,35.6z"/>
	<linearGradient id="SVGID_7_" gradientUnits="userSpaceOnUse" x1="45.3656" y1="34.1149" x2="41.2681" y2="41.2117">
		<stop  offset="0" style="stop-color:#E5E5E5"/>
		<stop  offset="1" style="stop-color:#FDA085;stop-opacity:0.1"/>
	</linearGradient>
	<path class="st7" d="M43.7,38c-1.7,1.7-3.2,2.8-3.4,2.6s1-1.7,2.6-3.4c1.7-1.7,3.2-2.8,3.4-2.6S45.3,36.4,43.7,38z"/>
	<linearGradient id="SVGID_8_" gradientUnits="userSpaceOnUse" x1="43.3324" y1="33.1866" x2="37.7616" y2="42.8352">
		<stop  offset="0" style="stop-color:#E5E5E5"/>
		<stop  offset="1" style="stop-color:#FDA085;stop-opacity:0.1"/>
	</linearGradient>
	<path class="st8" d="M41,38.5c-2.3,2.3-4.3,3.9-4.6,3.6c-0.3-0.3,1.3-2.3,3.6-4.6c2.3-2.3,4.3-3.9,4.6-3.6
		C44.9,34.2,43.3,36.3,41,38.5z"/>
</g>
</svg>
