<?xml version="1.0" encoding="utf-8"?>
<!-- Generator: Adobe Illustrator 15.1.0, SVG Export Plug-In . SVG Version: 6.00 Build 0)  -->
<!DOCTYPE svg PUBLIC "-//W3C//DTD SVG 1.1//EN" "http://www.w3.org/Graphics/SVG/1.1/DTD/svg11.dtd">
<svg version="1.1" id="Layer_1" xmlns="http://www.w3.org/2000/svg" xmlns:xlink="http://www.w3.org/1999/xlink" x="0px" y="0px"
	 width="81.126px" height="80.76px" viewBox="-2.93 -1.253 81.126 80.76" enable-background="new -2.93 -1.253 81.126 80.76"
	 xml:space="preserve">
<linearGradient id="SVGID_1_" gradientUnits="userSpaceOnUse" x1="112.666" y1="-51.4004" x2="134.9156" y2="-34.0257">
	<stop  offset="0" style="stop-color:#F6D365"/>
	<stop  offset="1" style="stop-color:#FDA6BD"/>
</linearGradient>
<circle fill="url(#SVGID_1_)" cx="129.743" cy="-38.064" r="26.015"/>
<g opacity="0.5" enable-background="new    ">
	
		<linearGradient id="SVGID_2_" gradientUnits="userSpaceOnUse" x1="-1428.2788" y1="510.6406" x2="-1348.8779" y2="510.6406" gradientTransform="matrix(-1 0 0 1 -1226.6133 -471.5137)">
		<stop  offset="0" style="stop-color:#F6D365"/>
		<stop  offset="1" style="stop-color:#FD5EBD"/>
	</linearGradient>
	<path opacity="0.5" fill="url(#SVGID_2_)" enable-background="new    " d="M163.238,77.707c4.106,1.055,8.428,1.477,12.469,0.394
		c4.621-1.238,10.139-8.116,13.721-11.282c9.57-4.736,13.748-10.361,11.749-22.583c-1.323-11.014-4.04-22.692-9.985-32.134
		c-3.076-4.89-7.253-9.603-12.839-11.411c-4.623-1.497-10.386-1.427-15.131-0.539c-29.809,5.583-39.294,33.278-40.729,41.055
		C118.716,61.124,163.238,77.707,163.238,77.707z"/>
</g>
<g opacity="0.5" enable-background="new    ">
	
		<linearGradient id="SVGID_3_" gradientUnits="userSpaceOnUse" x1="-554.3872" y1="1017.666" x2="-475.7935" y2="1017.666" gradientTransform="matrix(-0.5 0.866 0.866 0.5 -974.5199 -23.7963)">
		<stop  offset="0" style="stop-color:#F6D365"/>
		<stop  offset="1" style="stop-color:#FD5EBD"/>
	</linearGradient>
	<path opacity="0.5" fill="url(#SVGID_3_)" enable-background="new    " d="M197.223,59.11c2.951-3.097,5.301-8.407,6.4-12.518
		c1.256-4.698,1.045-9.621,0.149-14.364c-1.892-9.997-6.398-20.809-16.192-25.048c-10.021-4.337-21.52-6.276-32.518-5.751
		c-5.692,0.272-11.566,0.098-15.896,4.124c-3.585,3.333-4.563,8.229-6.181,12.86c-10.16,29.102,6.266,49.36,12.156,54.516
		C160.18,86.221,194.273,62.208,197.223,59.11z"/>
</g>
<g>
	
		<linearGradient id="SVGID_4_" gradientUnits="userSpaceOnUse" x1="1275.2256" y1="-1179.1943" x2="1349.6982" y2="-1179.1943" gradientTransform="matrix(0.0468 0.9989 0.9989 -0.0468 1280.4686 -1326.6901)">
		<stop  offset="0" style="stop-color:#F6D365"/>
		<stop  offset="1" style="stop-color:#FD5EBD"/>
	</linearGradient>
	<path opacity="0.5" fill="url(#SVGID_4_)" enable-background="new    " d="M203.391,39.922c0.861-4.152,0.016-9.805-1.256-13.795
		c-1.453-4.557-4.289-8.505-7.616-11.935c-7.014-7.229-16.714-13.717-27.403-11.92c-10.941,1.839-22.478,5.099-31.631,11.478
		c-4.741,3.303-9.253,7.695-10.798,13.357c-1.279,4.69-0.939,10.444,0.17,15.142c6.971,29.512,43.957,34.822,51.832,33.947
		C192.563,76.197,203.391,39.922,203.391,39.922z"/>
</g>
<g>
	<path fill="#FFFFFF" d="M193.571-43.452c0.264,0.22,0.968,0.857,1.364,0.857c0.55,0,0.571-0.901,0.571-1.275
		c0-0.551-0.021-1.497-0.197-2.003c-0.309-0.924-1.475-0.594-1.475-1.782c0-1.408,2.244-1.342,3.169-1.342
		c0.968,0,3.366-0.11,3.366,1.408c0,1.254-1.166,0.792-1.54,1.804c-0.286,0.792-0.286,2.156-0.286,2.993v5.698
		c0,0.99,0.132,4.005-1.343,4.005c-0.439,0-0.813-0.265-1.144-0.55l-6.799-6.096c-0.309-0.286-0.881-0.813-1.343-0.813
		c-0.682,0-0.704,1.43-0.704,1.892c0,0.616,0.022,1.431,0.154,2.003c0.33,1.408,1.496,0.88,1.496,1.958
		c0,1.475-2.267,1.606-3.301,1.606c-1.012,0-3.278-0.132-3.278-1.563c0-1.166,1.276-0.704,1.496-2.112
		c0.154-0.946,0.198-2.332,0.198-3.322c0-1.584,0-3.19-0.242-4.774c-0.352-2.201-1.937-1.343-1.937-2.663
		c0-1.562,2.971-1.474,3.961-1.474c1.364,0,1.606,0.088,2.597,0.968L193.571-43.452z"/>
	<path fill="#FFFFFF" d="M202.832-42.131c0-2.795-0.221-3.433-0.463-3.741c-0.506-0.638-1.364-0.704-1.364-1.54
		c0-1.584,4.489-1.584,4.929-1.584c1.32,0,4.027,0.044,4.027,1.54c0,0.792-0.837,0.748-1.343,1.32
		c-0.418,0.483-0.439,2.464-0.439,4.005v2.178c0,3.917,0.264,3.829,0.704,4.093c0.55,0.33,1.078,0.44,1.078,1.122
		c0,0.66-0.198,1.65-5.017,1.65c-0.925,0-3.697-0.022-3.697-1.431c0-0.704,0.748-0.813,1.101-1.231
		c0.264-0.309,0.484-1.123,0.484-4.203V-42.131z"/>
	<path fill="#FFFFFF" d="M222.347-43.452c0.264,0.22,0.968,0.857,1.364,0.857c0.55,0,0.571-0.901,0.571-1.275
		c0-0.551-0.021-1.497-0.197-2.003c-0.309-0.924-1.475-0.594-1.475-1.782c0-1.408,2.244-1.342,3.169-1.342
		c0.968,0,3.366-0.11,3.366,1.408c0,1.254-1.166,0.792-1.54,1.804c-0.286,0.792-0.286,2.156-0.286,2.993v5.698
		c0,0.99,0.132,4.005-1.343,4.005c-0.439,0-0.813-0.265-1.144-0.55l-6.799-6.096c-0.309-0.286-0.881-0.813-1.343-0.813
		c-0.682,0-0.704,1.43-0.704,1.892c0,0.616,0.022,1.431,0.154,2.003c0.33,1.408,1.496,0.88,1.496,1.958
		c0,1.475-2.267,1.606-3.301,1.606c-1.012,0-3.278-0.132-3.278-1.563c0-1.166,1.276-0.704,1.496-2.112
		c0.154-0.946,0.198-2.332,0.198-3.322c0-1.584,0-3.19-0.242-4.774c-0.352-2.201-1.937-1.343-1.937-2.663
		c0-1.562,2.971-1.474,3.961-1.474c1.364,0,1.606,0.088,2.597,0.968L222.347-43.452z"/>
	<path fill="#FFFFFF" d="M230.001-41.098c0-4.664,3.719-7.965,8.515-7.965c6.073,0,8.405,5.347,8.405,8.186
		c0,4.73-4.181,7.854-8.669,7.854C233.609-33.023,230.001-36.411,230.001-41.098z M237.504-45.785c-1.232,0-1.849,1.276-1.849,2.354
		c0,1.87,1.32,7.129,3.697,7.129c1.342,0,1.914-1.166,1.914-2.354C241.267-40.658,240.078-45.785,237.504-45.785z"/>
</g>
<path fill="#B5B5B5" d="M290.801,34.889v5.55v14.088v5.551h6.607h11.111h6.607v-5.551V40.438v-5.551h-6.607h-11.111L290.801,34.889z
	 M297.408,40.438l7.209,6.995v-6.763h3.945v13.855h-0.043h-3.902h-7.209V40.438z"/>
<text transform="matrix(1.0108 0 0 1 260.9414 73.8398)" fill="#B5B5B5" font-family="'NotoSansCJKkr-Bold-KSCpc-EUC-H'" font-size="12.3721">FACTORY</text>
<rect x="24.083" y="-66.906" fill="#E8E8E8" width="4.989" height="19.88"/>
<polygon fill="#E8E8E8" points="14.557,-66.906 14.557,-54.848 6.165,-66.906 1.175,-66.906 1.175,-47.678 6.165,-47.678 
	6.165,-59.736 14.557,-47.678 19.545,-47.678 19.545,-66.906 "/>
<polygon fill="#E8E8E8" points="37.464,-47.679 37.464,-35.62 29.074,-47.679 24.083,-47.679 24.083,-28.45 29.074,-28.45 
	29.074,-40.508 37.464,-28.45 42.455,-28.45 42.455,-47.679 "/>
<path fill="#E8E8E8" d="M60.371-47.679H51.98h-4.99v4.237v10.754v4.236h4.99h8.391h4.99v-4.236v-10.754v-4.236L60.371-47.679z
	 M60.371-32.688h-5.443H51.98h-0.033v-10.576h2.98v5.162l5.443-5.34V-32.688z"/>
<text transform="matrix(1 0 0 1 23.708 -17.9463)" fill="#E8E8E8" font-family="'NotoSansCJKkr-Bold-KSCpc-EUC-H'" font-size="9.4436">FACTORY</text>
<path fill="#FFFFFF" d="M88.828,3.724c-0.039,2.865,2.977,5.23,6.738,5.281c1.963,0.027,3.724-0.591,4.983-1.586
	c1.227,1.029,2.976,1.695,4.937,1.723c1.957,0.027,3.716-0.587,4.972-1.577c1.229,1.024,2.971,1.687,4.928,1.714
	c3.76,0.052,6.838-2.229,6.879-5.094c0.039-2.866-2.977-5.23-6.734-5.283c-0.156-0.002-0.303,0.022-0.455,0.028
	c-0.941-1.979-3.391-3.421-6.308-3.461c-1.434-0.019-2.766,0.303-3.868,0.865c-1.227-1.001-2.952-1.646-4.883-1.673
	c-3.401-0.046-6.222,1.82-6.763,4.294C90.696-0.329,88.859,1.518,88.828,3.724z"/>
<ellipse fill="#B5B5B5" cx="264.824" cy="18.146" rx="3.123" ry="3.091"/>
<ellipse fill="#B5B5B5" cx="264.048" cy="21.237" rx="1.8" ry="1.561"/>
<ellipse fill="#B5B5B5" cx="266.7" cy="11.486" rx="6.731" ry="6.66"/>
<ellipse fill="#B5B5B5" cx="271.778" cy="5.945" rx="6.953" ry="6.878"/>
<ellipse fill="#B5B5B5" cx="275.97" cy="10.501" rx="6.952" ry="6.876"/>
<ellipse fill="#B5B5B5" cx="285.75" cy="4.871" rx="13.064" ry="10.154"/>
<polygon fill="#B5B5B5" points="278.186,34.888 278.186,50.686 267.033,34.888 267.033,44.282 278.186,60.078 284.793,60.078 
	284.793,34.888 "/>
<polygon fill="#B5B5B5" points="238.147,34.888 238.147,60.078 244.755,60.078 244.755,44.281 255.694,60.078 255.694,50.684 
	244.755,34.888 "/>
<polygon fill="#B5B5B5" points="267.074,60.078 267.074,60.077 267.073,60.077 "/>
<polygon fill="#B5B5B5" points="265.919,34.888 265.919,22.798 259.947,26.155 259.947,34.888 257.061,34.888 257.061,47.481 
	257.061,60.077 265.92,60.077 265.921,60.077 265.921,44.282 265.921,34.888 "/>
<polygon fill="#CCCAB4" points="-40.68,-38.064 -40.68,-15.979 -34.14,-15.979 -34.14,-31.278 -34.14,-33.023 -34.14,-38.064 "/>
<rect x="-34.14" y="-38.064" fill="#CCCAB4" width="11.348" height="5.042"/>
<path fill="none" d="M28.421,37.289v8.237c1.517-0.217,3.089-0.434,4.66-0.596v-8.779C31.51,36.476,29.938,36.855,28.421,37.289z"/>
<path fill="none" d="M18.614,40.215v6.773c1.517-0.271,3.088-0.488,4.66-0.76v-7.531C21.648,39.185,20.131,39.727,18.614,40.215z"/>
<path fill="none" d="M61.801,46.879h8.615v-2.113c-2.818-0.434-5.689-0.758-8.615-0.975V46.879z"/>
<path fill="none" d="M46.846,34.254c-2.006,0.108-3.957,0.325-5.907,0.596l5.907,8.832V34.254z"/>
<path fill="none" d="M13.466,42.057c-0.325,0.109-0.596,0.217-0.867,0.326l0.867,1.354V42.057z"/>
<path fill="none" d="M4.851,45.309c1.138-0.434,2.384-0.867,3.63-1.41l-3.63-5.472V45.309z"/>
<path fill="none" d="M4.851,45.309v4.279c2.059-0.432,4.226-0.865,6.556-1.299l-2.872-4.336C7.18,44.441,5.988,44.875,4.851,45.309z
	"/>
<path fill="none" d="M38.229,44.332c1.247-0.107,2.493-0.217,3.74-0.324l-3.74-5.582V44.332z"/>
<path fill="none" d="M61.801,35.229v8.562c2.926,0.217,5.852,0.488,8.615,0.975v-8.506c-1.572-0.38-3.143-0.705-4.66-0.976h-3.955
	V35.229z"/>
<path fill="none" d="M56.652,34.2c-1.57-0.108-3.143-0.108-4.66-0.108v9.483c1.572,0,3.143,0,4.66,0v-8.345V34.2z"/>
<path fill="none" d="M65.756,35.229c1.572,0.271,3.088,0.597,4.66,0.976v-0.976H65.756z"/>
<linearGradient id="SVGID_5_" gradientUnits="userSpaceOnUse" x1="23.2739" y1="34.688" x2="28.4214" y2="34.688">
	<stop  offset="0" style="stop-color:#F90047"/>
	<stop  offset="1" style="stop-color:#B40047"/>
</linearGradient>
<path fill="url(#SVGID_5_)" d="M28.421,30.678h-5.147v8.02c1.68-0.488,3.359-0.976,5.147-1.464V30.678z"/>
<linearGradient id="SVGID_6_" gradientUnits="userSpaceOnUse" x1="23.2739" y1="41.7588" x2="28.4214" y2="41.7588">
	<stop  offset="0" style="stop-color:#FFDA00"/>
	<stop  offset="1" style="stop-color:#FFA000"/>
</linearGradient>
<path fill="url(#SVGID_6_)" d="M23.274,38.698v7.531c1.68-0.27,3.414-0.486,5.147-0.758v-8.182
	C26.633,37.722,24.954,38.209,23.274,38.698z"/>
<linearGradient id="SVGID_7_" gradientUnits="userSpaceOnUse" x1="23.2739" y1="48.4512" x2="28.4214" y2="48.4512">
	<stop  offset="0" style="stop-color:#FFFFFF"/>
	<stop  offset="1" style="stop-color:#FFF6E6"/>
</linearGradient>
<path fill="url(#SVGID_7_)" d="M23.274,51.432h5.147v-5.961c-1.734,0.217-3.468,0.488-5.147,0.758V51.432z"/>
<linearGradient id="SVGID_8_" gradientUnits="userSpaceOnUse" x1="56.6523" y1="47.5029" x2="75.5645" y2="47.5029">
	<stop  offset="0" style="stop-color:#FFFFFF"/>
	<stop  offset="1" style="stop-color:#FFF6E6"/>
</linearGradient>
<path fill="url(#SVGID_8_)" d="M70.416,46.879h-8.615v-3.088c-1.68-0.109-3.414-0.162-5.148-0.217v3.305v4.553h5.148h8.615h5.148
	v-4.553v-1.137c-1.68-0.379-3.414-0.705-5.148-1.029V46.879z"/>
<linearGradient id="SVGID_9_" gradientUnits="userSpaceOnUse" x1="56.6523" y1="38.9688" x2="65.7559" y2="38.9688">
	<stop  offset="0" style="stop-color:#FFDA00"/>
	<stop  offset="1" style="stop-color:#FFA000"/>
</linearGradient>
<path fill="url(#SVGID_9_)" d="M61.801,35.229h3.955c-3.088-0.541-6.123-0.866-9.104-1.083v1.083v8.345
	c1.734,0.055,3.414,0.107,5.148,0.217V35.229L61.801,35.229z"/>
<linearGradient id="SVGID_10_" gradientUnits="userSpaceOnUse" x1="56.6523" y1="34.1729" x2="75.5645" y2="34.1729">
	<stop  offset="0" style="stop-color:#F90047"/>
	<stop  offset="1" style="stop-color:#B40047"/>
</linearGradient>
<path fill="url(#SVGID_10_)" d="M70.416,35.229v0.976c1.68,0.434,3.414,0.867,5.148,1.463v-2.438v-4.551h-5.148l0,0h-8.615h-5.148
	V34.2c2.98,0.163,6.016,0.488,9.104,1.084h4.66V35.229z"/>
<linearGradient id="SVGID_11_" gradientUnits="userSpaceOnUse" x1="70.416" y1="41.0273" x2="75.5645" y2="41.0273">
	<stop  offset="0" style="stop-color:#FFDA00"/>
	<stop  offset="1" style="stop-color:#FFA000"/>
</linearGradient>
<path fill="url(#SVGID_11_)" d="M70.416,36.259v8.506c1.734,0.271,3.469,0.598,5.148,1.029v-8.127
	C73.83,37.125,72.15,36.638,70.416,36.259z"/>
<linearGradient id="SVGID_12_" gradientUnits="userSpaceOnUse" x1="13.4658" y1="36.3672" x2="18.6138" y2="36.3672">
	<stop  offset="0" style="stop-color:#F90047"/>
	<stop  offset="1" style="stop-color:#B40047"/>
</linearGradient>
<path fill="url(#SVGID_12_)" d="M18.614,30.678h-5.148v11.378c1.626-0.596,3.36-1.191,5.148-1.842V30.678z"/>
<linearGradient id="SVGID_13_" gradientUnits="userSpaceOnUse" x1="11.4067" y1="49.21" x2="18.6138" y2="49.21">
	<stop  offset="0" style="stop-color:#FFFFFF"/>
	<stop  offset="1" style="stop-color:#FFF6E6"/>
</linearGradient>
<path fill="url(#SVGID_13_)" d="M13.466,51.432h5.148v-4.443c-2.493,0.434-4.931,0.867-7.207,1.301L13.466,51.432z"/>
<linearGradient id="SVGID_14_" gradientUnits="userSpaceOnUse" x1="-0.2974" y1="50.4834" x2="4.8506" y2="50.4834">
	<stop  offset="0" style="stop-color:#FFFFFF"/>
	<stop  offset="1" style="stop-color:#FFF6E6"/>
</linearGradient>
<path fill="url(#SVGID_14_)" d="M-0.297,51.432h5.148v-1.896c-1.843,0.379-3.577,0.703-5.148,1.029V51.432z"/>
<linearGradient id="SVGID_15_" gradientUnits="userSpaceOnUse" x1="-0.2974" y1="47.9639" x2="4.8506" y2="47.9639">
	<stop  offset="0" style="stop-color:#FFDA00"/>
	<stop  offset="1" style="stop-color:#FFA000"/>
</linearGradient>
<path fill="url(#SVGID_15_)" d="M-0.297,47.043v3.576c1.571-0.326,3.305-0.65,5.148-1.031v-4.279
	C2.9,46.066,1.166,46.662-0.297,47.043z"/>
<linearGradient id="SVGID_16_" gradientUnits="userSpaceOnUse" x1="-0.2974" y1="38.8604" x2="12.5991" y2="38.8604">
	<stop  offset="0" style="stop-color:#F90047"/>
	<stop  offset="1" style="stop-color:#B40047"/>
</linearGradient>
<path fill="url(#SVGID_16_)" d="M4.851,38.426l3.63,5.527c1.3-0.488,2.655-1.029,4.118-1.57L4.851,30.678h-5.148v16.365
	c1.463-0.381,3.197-0.977,5.148-1.734V38.426z"/>
<linearGradient id="SVGID_17_" gradientUnits="userSpaceOnUse" x1="8.481" y1="44.2246" x2="18.5596" y2="44.2246">
	<stop  offset="0" style="stop-color:#FFDA00"/>
	<stop  offset="1" style="stop-color:#FFA000"/>
</linearGradient>
<path fill="url(#SVGID_17_)" d="M13.466,42.057v1.625l-0.867-1.354c-1.463,0.541-2.818,1.084-4.118,1.57l2.872,4.336
	c2.276-0.434,4.714-0.867,7.207-1.301v-6.719C16.826,40.811,15.092,41.461,13.466,42.057z"/>
<linearGradient id="SVGID_18_" gradientUnits="userSpaceOnUse" x1="33.0815" y1="47.8818" x2="38.229" y2="47.8818">
	<stop  offset="0" style="stop-color:#FFFFFF"/>
	<stop  offset="1" style="stop-color:#FFF6E6"/>
</linearGradient>
<path fill="url(#SVGID_18_)" d="M33.082,51.432h5.147v-7.1c-1.734,0.164-3.414,0.326-5.147,0.543V51.432z"/>
<linearGradient id="SVGID_19_" gradientUnits="userSpaceOnUse" x1="41.9141" y1="47.5029" x2="51.9922" y2="47.5029">
	<stop  offset="0" style="stop-color:#FFFFFF"/>
	<stop  offset="1" style="stop-color:#FFF6E6"/>
</linearGradient>
<path fill="url(#SVGID_19_)" d="M46.846,51.432h5.146v-7.857c-3.359,0.055-6.719,0.217-10.078,0.434L46.846,51.432z"/>
<linearGradient id="SVGID_20_" gradientUnits="userSpaceOnUse" x1="33.0815" y1="33.4146" x2="40.9385" y2="33.4146">
	<stop  offset="0" style="stop-color:#F90047"/>
	<stop  offset="1" style="stop-color:#B40047"/>
</linearGradient>
<path fill="url(#SVGID_20_)" d="M38.229,30.678h-5.147v5.473c2.547-0.542,5.147-1.03,7.857-1.355L38.229,30.678z"/>
<linearGradient id="SVGID_21_" gradientUnits="userSpaceOnUse" x1="33.0815" y1="39.4834" x2="52.0469" y2="39.4834">
	<stop  offset="0" style="stop-color:#FFDA00"/>
	<stop  offset="1" style="stop-color:#FFA000"/>
</linearGradient>
<path fill="url(#SVGID_21_)" d="M46.846,34.254v9.427l-5.907-8.886c-2.709,0.325-5.31,0.813-7.857,1.355v8.724
	c1.68-0.217,3.414-0.379,5.147-0.543v-5.906l3.74,5.582c3.359-0.271,6.719-0.434,10.078-0.434v-9.483
	C50.258,34.091,48.525,34.146,46.846,34.254z"/>
<linearGradient id="SVGID_22_" gradientUnits="userSpaceOnUse" x1="46.8457" y1="32.4663" x2="51.9922" y2="32.4663">
	<stop  offset="0" style="stop-color:#F90047"/>
	<stop  offset="1" style="stop-color:#B40047"/>
</linearGradient>
<path fill="url(#SVGID_22_)" d="M51.992,30.678h-5.146v3.576c1.68-0.108,3.412-0.163,5.146-0.163V30.678z"/>
<path fill="none" d="M-61.986,78.474c0.59,0.029,1.196,0.049,1.835,0.049c1.438,0,2.752-0.08,3.974-0.217l-5.809-8.813V78.474z"/>
<linearGradient id="SVGID_23_" gradientUnits="userSpaceOnUse" x1="-99.2817" y1="68.6074" x2="-25.1147" y2="68.4404">
	<stop  offset="0" style="stop-color:#F6D365"/>
	<stop  offset="1" style="stop-color:#FDA6BD"/>
</linearGradient>
<path fill="url(#SVGID_23_)" d="M-77.69,61.304V72.31c1.72,1.188,3.396,2.432,5.398,3.492V61.304H-77.69z"/>
<linearGradient id="SVGID_24_" gradientUnits="userSpaceOnUse" x1="-32.5088" y1="77.4717" x2="-99.6758" y2="77.9717">
	<stop  offset="0" style="stop-color:#F6D365"/>
	<stop  offset="1" style="stop-color:#FDA6BD"/>
</linearGradient>
<path fill="url(#SVGID_24_)" d="M-77.69,83.265h5.398v-7.463c-2.002-1.061-3.678-2.305-5.398-3.492V83.265z"/>
<linearGradient id="SVGID_25_" gradientUnits="userSpaceOnUse" x1="-32.52" y1="75.9932" x2="-99.6854" y2="76.4932">
	<stop  offset="0" style="stop-color:#F6D365"/>
	<stop  offset="1" style="stop-color:#FDA6BD"/>
</linearGradient>
<path fill="url(#SVGID_25_)" d="M-28.125,68.617v9.809h-9.079v-9.132c-1.949,0.843-3.616,2.065-5.398,3.352v5.78v4.839h5.398h9.079
	h5.397v-4.839v-6.634C-24.276,70.437-25.885,69.236-28.125,68.617z"/>
<linearGradient id="SVGID_26_" gradientUnits="userSpaceOnUse" x1="-99.2852" y1="67.1025" x2="-25.1182" y2="66.9355">
	<stop  offset="0" style="stop-color:#F6D365"/>
	<stop  offset="1" style="stop-color:#FDA6BD"/>
</linearGradient>
<path fill="url(#SVGID_26_)" d="M-37.204,66.142h9.079v2.476c2.239,0.619,3.849,1.819,5.397,3.175v-5.65v-4.838h-5.397h-9.079
	h-5.398v4.838v6.504c1.782-1.286,3.449-2.509,5.398-3.352V66.142z"/>
<linearGradient id="SVGID_27_" gradientUnits="userSpaceOnUse" x1="-99.2886" y1="65.2822" x2="-25.1253" y2="65.1152">
	<stop  offset="0" style="stop-color:#F6D365"/>
	<stop  offset="1" style="stop-color:#FDA6BD"/>
</linearGradient>
<path fill="url(#SVGID_27_)" d="M-97.075,61.304h-5.398v7.971c2.903-0.785,6.157-1.344,9.696-1.45L-97.075,61.304z"/>
<linearGradient id="SVGID_28_" gradientUnits="userSpaceOnUse" x1="-99.2886" y1="65.4189" x2="-25.1216" y2="65.252">
	<stop  offset="0" style="stop-color:#F6D365"/>
	<stop  offset="1" style="stop-color:#FDA6BD"/>
</linearGradient>
<path fill="url(#SVGID_28_)" d="M-87.996,61.304v6.724c2.103,0.274,3.857,0.784,5.398,1.444v-8.168H-87.996z"/>
<linearGradient id="SVGID_29_" gradientUnits="userSpaceOnUse" x1="-32.5259" y1="75.1338" x2="-99.6929" y2="75.6338">
	<stop  offset="0" style="stop-color:#F6D365"/>
	<stop  offset="1" style="stop-color:#FDA6BD"/>
</linearGradient>
<path fill="url(#SVGID_29_)" d="M-87.996,75.076l-4.781-7.252c-3.539,0.106-6.793,0.665-9.696,1.45v13.99h5.398V69.493l9.079,13.771
	h5.398V69.472c-1.541-0.66-3.295-1.17-5.398-1.444V75.076z"/>
<linearGradient id="SVGID_30_" gradientUnits="userSpaceOnUse" x1="-32.4941" y1="79.4072" x2="-99.6611" y2="79.9072">
	<stop  offset="0" style="stop-color:#F6D365"/>
	<stop  offset="1" style="stop-color:#FDA6BD"/>
</linearGradient>
<path fill="url(#SVGID_30_)" d="M-52.908,83.265h5.397v-7.492c-2.282,1.172-5.035,2.125-8.667,2.533L-52.908,83.265z"/>
<linearGradient id="SVGID_31_" gradientUnits="userSpaceOnUse" x1="-99.2769" y1="69.9658" x2="-25.1117" y2="69.7988">
	<stop  offset="0" style="stop-color:#F6D365"/>
	<stop  offset="1" style="stop-color:#FDA6BD"/>
</linearGradient>
<path fill="url(#SVGID_31_)" d="M-52.908,61.304v13.772l-9.078-13.772h-5.398v16.393c1.566,0.398,3.339,0.674,5.398,0.777v-8.98
	l5.809,8.813c3.632-0.408,6.385-1.361,8.667-2.533V61.304H-52.908z"/>
<linearGradient id="SVGID_32_" gradientUnits="userSpaceOnUse" x1="-32.4878" y1="80.2412" x2="-99.6548" y2="80.7412">
	<stop  offset="0" style="stop-color:#F6D365"/>
	<stop  offset="1" style="stop-color:#FDA6BD"/>
</linearGradient>
<path fill="url(#SVGID_32_)" d="M-67.384,83.265h5.398v-4.791c-2.06-0.104-3.832-0.379-5.398-0.777V83.265z"/>
</svg>
